<svg xmlns="http://www.w3.org/2000/svg" width="80" height="80" fill="none"><path fill="#D4C17F" d="M20 68H1.33a1.33 1.33 0 1 0 0 2.67H20A1.33 1.33 0 1 0 20 68ZM16 65.33a16.02 16.02 0 0 0 11.04-27.58 1.34 1.34 0 0 0-1.84 1.93A13.35 13.35 0 0 1 16 62.67 13.35 13.35 0 0 1 2.67 49.33C2.67 41.98 8.65 36 16 36a1.33 1.33 0 1 0 0-2.67c-8.82 0-16 7.18-16 16s7.18 16 16 16Z"/><path fill="#D4C17F" d="M22.67 28h.67l-7.7 18.7a2.66 2.66 0 1 0 2.47 1.02l7.52-18.27 8.44 12.25a1.33 1.33 0 1 0 2.2-1.51l-8.4-12.2h2.8a4 4 0 0 0 0-8h-8c-.74 0-1.34.6-1.34 1.34v5.33c0 .74.6 1.34 1.34 1.34ZM24 22.66h6.67a1.33 1.33 0 0 1 0 2.67H24v-2.66ZM62.67 34.66c0 .74.6 1.34 1.33 1.34 7.35 0 13.33 5.98 13.33 13.33S71.35 62.66 64 62.66a13.35 13.35 0 0 1-8.48-23.62 1.33 1.33 0 0 0-1.7-2.06A16.02 16.02 0 0 0 64 65.33c8.83 0 16.01-7.18 16.01-16s-7.18-16-16-16c-.74 0-1.33.6-1.33 1.34ZM41.33 68H28a1.33 1.33 0 1 0 0 2.67h13.33a1.33 1.33 0 1 0 0-2.67Z"/><path fill="#D4C17F" d="M41.33 42.85v-4.19a1.33 1.33 0 1 0 0-2.66h-2.66a1.33 1.33 0 1 0 0 2.66v4.2c-2.3.59-4 2.66-4 5.14 0 2.48 1.7 4.55 4 5.14v4.2a1.33 1.33 0 1 0 0 2.66h2.66a1.33 1.33 0 1 0 0-2.67v-4.19c2.3-.6 4-2.66 4-5.14 0-2.48-1.7-4.55-4-5.15ZM40 50.66a2.67 2.67 0 1 1 0-5.34 2.67 2.67 0 0 1 0 5.34ZM61.95 47.65A2.65 2.65 0 0 0 64 52a2.67 2.67 0 0 0 .44-5.29l-6.02-16.05h9.52c1.6 0 2.53-1.27 2.7-2.4l1.33-6.67a1.33 1.33 0 0 0-1.3-1.6h-12a1.33 1.33 0 1 0 0 2.67h10.37l-1.02 5.1c-.02.1-.08.23-.08.24H57.42l-4.17-11.14v-.01l-.01-.01-2.67-6.67a1.33 1.33 0 0 0-2.48 1l2.43 6.06L45.51 26a1.33 1.33 0 1 0 2.31 1.33l3.93-6.87 3.2 8.55L44.8 40.44a1.33 1.33 0 1 0 1.99 1.78l9.23-10.38 5.93 15.81ZM78.67 68H57.33a1.33 1.33 0 1 0 0 2.67h21.34a1.33 1.33 0 1 0 0-2.67ZM52 68h-2.67a1.33 1.33 0 1 0 0 2.67H52A1.33 1.33 0 1 0 52 68Z"/></svg>