<svg xmlns="http://www.w3.org/2000/svg" width="80" height="80" fill="none"><g fill="#D4C17F" clip-path="url(#a)"><path d="M57.33 74.67H20c-.74 0-1.33.6-1.33 1.33v2.67a1.33 1.33 0 0 0 2.66 0v-1.34h36a1.33 1.33 0 0 0 0-2.66ZM29.33 33.33c0 .74.6 1.34 1.34 1.34H36c.74 0 1.33-.6 1.33-1.34v-8c0-.73-.6-1.33-1.33-1.33h-5.33c-.74 0-1.34.6-1.34 1.33v8ZM32 26.67h2.67V32H32v-5.33ZM17.33 16h-16C.6 16 0 16.6 0 17.33V44a1.33 1.33 0 0 0 2.67 0V18.67h14.66a1.33 1.33 0 0 0 0-2.67ZM64 65.33c0 .74.6 1.34 1.33 1.34h5.34c.73 0 1.33-.6 1.33-1.34v-8c0-.73-.6-1.33-1.33-1.33h-5.34c-.73 0-1.33.6-1.33 1.33v8Zm2.67-6.66h2.66V64h-2.66v-5.33ZM6.67 48C.07 48 0 65.16 0 65.33c0 3.22 2.3 5.92 5.33 6.54v6.8a1.33 1.33 0 0 0 2.67 0v-6.8a6.68 6.68 0 0 0 5.33-6.54c0-.17-.07-17.33-6.66-17.33Zm0 21.33a4 4 0 0 1-4-4c0-6.64 1.78-14.66 4-14.66 2.21 0 4 8.02 4 14.66a4 4 0 0 1-4 4ZM14.67 40H9.33C8.6 40 8 40.6 8 41.33V44a1.33 1.33 0 0 0 2.67 0v-1.33h2.66v6.66a1.33 1.33 0 0 0 2.67 0v-8c0-.73-.6-1.33-1.33-1.33ZM65.33 34.67h5.34c.73 0 1.33-.6 1.33-1.34v-8c0-.73-.6-1.33-1.33-1.33h-5.34c-.73 0-1.33.6-1.33 1.33v8c0 .74.6 1.34 1.33 1.34Zm1.34-8h2.66V32h-2.66v-5.33Z"/><path d="M14.67 24H9.33C8.6 24 8 24.6 8 25.33v8c0 .74.6 1.34 1.33 1.34h5.34c.73 0 1.33-.6 1.33-1.34v-8c0-.73-.6-1.33-1.33-1.33Zm-1.34 8h-2.66v-5.33h2.66V32ZM42.67 33.33c0 .74.6 1.34 1.33 1.34h5.33c.74 0 1.34-.6 1.34-1.34v-8c0-.73-.6-1.33-1.34-1.33H44c-.74 0-1.33.6-1.33 1.33v8Zm2.66-6.66H48V32h-2.67v-5.33ZM78.67 16h-16a1.33 1.33 0 0 0 0 2.67h14.66v53.58a3.95 3.95 0 0 0-2.02-.19 5.3 5.3 0 0 0-4.64-2.73 5.3 5.3 0 0 0-4.65 2.73 4 4 0 1 0-.69 7.94H76a4 4 0 0 0 4-4V17.33c0-.73-.6-1.33-1.33-1.33ZM76 77.33H65.33a1.34 1.34 0 0 1 0-2.66c.26 0 .5.07.73.21a1.34 1.34 0 0 0 2.02-.82 2.65 2.65 0 0 1 5.18 0 1.33 1.33 0 0 0 2.02.82c.87-.56 2.05.13 2.05 1.12 0 .73-.6 1.33-1.33 1.33ZM44 18.67h5.33c.74 0 1.34-.6 1.34-1.34v-8c0-.73-.6-1.33-1.34-1.33H44c-.74 0-1.33.6-1.33 1.33v8c0 .74.6 1.34 1.33 1.34Zm1.33-8H48V16h-2.67v-5.33ZM42.67 49.33c0 .74.6 1.34 1.33 1.34h5.33c.74 0 1.34-.6 1.34-1.34v-8c0-.73-.6-1.33-1.34-1.33H44c-.74 0-1.33.6-1.33 1.33v8Zm2.66-6.66H48V48h-2.67v-5.33ZM30.67 18.67H36c.74 0 1.33-.6 1.33-1.34v-8C37.33 8.6 36.73 8 36 8h-5.33c-.74 0-1.34.6-1.34 1.33v8c0 .74.6 1.34 1.34 1.34Zm1.33-8h2.67V16H32v-5.33ZM39.05 64.39c-.24.25-.38.6-.38.94 0 .35.14.7.38.95.26.24.6.39.95.39s.7-.15.95-.39c.24-.25.38-.6.38-.95 0-.34-.14-.69-.38-.94a1.4 1.4 0 0 0-1.9 0ZM29.33 49.33c0 .74.6 1.34 1.34 1.34H36c.74 0 1.33-.6 1.33-1.34v-8c0-.73-.6-1.33-1.33-1.33h-5.33c-.74 0-1.34.6-1.34 1.33v8ZM32 42.67h2.67V48H32v-5.33Z"/><path d="M26.67 57.33c0 .74.6 1.34 1.33 1.34h4v12a1.33 1.33 0 0 0 2.67 0v-12h10.66v12a1.33 1.33 0 0 0 2.67 0v-12h4A1.33 1.33 0 0 0 52 56H28c-.74 0-1.33.6-1.33 1.33ZM64 49.33c0 .74.6 1.34 1.33 1.34h5.34c.73 0 1.33-.6 1.33-1.34v-8c0-.73-.6-1.33-1.33-1.33h-5.34c-.73 0-1.33.6-1.33 1.33v8Zm2.67-6.66h2.66V48h-2.66v-5.33Z"/><path d="M57.33 0H22.67c-.74 0-1.34.6-1.34 1.33v69.34a1.33 1.33 0 0 0 2.67 0v-68h32v68a1.33 1.33 0 0 0 2.67 0V1.33c0-.73-.6-1.33-1.34-1.33Z"/></g><defs><clipPath id="a"><path fill="#fff" d="M0 0h80v80H0z"/></clipPath></defs></svg>