<svg xmlns="http://www.w3.org/2000/svg" width="80" height="80" fill="none"><g fill="#D4C17F" clip-path="url(#a)"><path d="M53.39 4.62c.18 0 .37-.04.54-.12a21 21 0 0 1 1.16-.48 1.33 1.33 0 1 0-.94-2.49c-.44.17-.88.35-1.3.54a1.33 1.33 0 0 0 .54 2.55ZM53.33 33.54c.74 0 1.34-.6 1.34-1.34v-.23a8 8 0 0 1 .06-1.03 1.33 1.33 0 0 0-2.64-.35c-.06.45-.09.92-.09 1.38v.23c0 .74.6 1.34 1.33 1.34ZM46.67 33.87c.73 0 1.33-.6 1.33-1.34v-1.35a1.33 1.33 0 1 0-2.67 0v1.35c0 .74.6 1.34 1.34 1.34ZM54.32 12.78c-.43.23-.85.49-1.25.76a1.33 1.33 0 0 0 1.48 2.22c.34-.23.7-.45 1.06-.65a1.33 1.33 0 0 0-1.29-2.33ZM35.41 12.64a1.33 1.33 0 1 0 2.26-1.42c-.25-.4-.52-.79-.79-1.17a1.33 1.33 0 1 0-2.17 1.55c.24.34.48.69.7 1.04ZM59.79 2.82h.17c.4-.06.83-.1 1.25-.13a1.33 1.33 0 0 0-.18-2.66c-.47.03-.94.08-1.4.14a1.33 1.33 0 0 0 .16 2.65ZM54.84 24.72a1.33 1.33 0 0 0 1.96 1.82c.28-.3.58-.59.9-.84a1.33 1.33 0 1 0-1.65-2.1c-.43.35-.84.72-1.2 1.12ZM42.75 13.06a1.33 1.33 0 0 0 1.84-.42c.22-.35.46-.7.7-1.04a1.33 1.33 0 0 0-2.17-1.55c-.27.38-.54.77-.79 1.17-.39.63-.2 1.45.42 1.84ZM53.33 39.97c.74 0 1.34-.6 1.34-1.33v-.67a1.33 1.33 0 1 0-2.67 0v.67c0 .74.6 1.33 1.33 1.33ZM46.64 27.1h.18c.66 0 1.23-.48 1.32-1.15.06-.41.13-.82.22-1.22a1.33 1.33 0 1 0-2.6-.59c-.1.48-.2.96-.26 1.45-.1.73.41 1.4 1.14 1.5ZM37.56 17.18l.37 1.2a1.34 1.34 0 0 0 1.63.93c.17-.04.31-.12.44-.21a1.32 1.32 0 0 0 2.07-.72c.12-.4.23-.8.37-1.2.24-.7-.14-1.46-.83-1.7-.64-.21-1.32.1-1.61.7a1.32 1.32 0 0 0-2.44 1ZM47.79 8.2c.3 0 .62-.1.87-.32l.97-.8a1.33 1.33 0 0 0-1.62-2.1c-.38.28-.74.58-1.1.89a1.33 1.33 0 0 0 .88 2.34ZM48.82 17.54c-.3.4-.57.8-.83 1.2a1.33 1.33 0 0 0 2.26 1.43c.22-.35.45-.7.7-1.02a1.33 1.33 0 0 0-2.13-1.6ZM61.3 10.7c-.5.03-.98.09-1.45.17a1.33 1.33 0 0 0 .43 2.63c.4-.07.81-.12 1.23-.15a1.33 1.33 0 0 0-.2-2.66ZM66.24 2.92l1.23.24.29.03a1.33 1.33 0 0 0 .28-2.64c-.46-.1-.92-.19-1.39-.26a1.33 1.33 0 1 0-.41 2.63ZM68.52 11.65c-.46-.16-.93-.3-1.4-.43-.71-.19-1.44.23-1.63.94-.2.72.23 1.45.94 1.64.4.1.8.22 1.19.36a1.33 1.33 0 1 0 .9-2.5ZM62.12 21.32c-.73.04-1.3.66-1.26 1.4.03.73.61 1.3 1.4 1.26a8.33 8.33 0 0 1 1.37.04 1.33 1.33 0 0 0 .14-2.66c-.54-.05-1.1-.07-1.65-.04ZM77.68 8.87a1.33 1.33 0 1 0 1.97-1.8l-.48-.51a1.33 1.33 0 0 0-1.91 1.87l.42.44ZM57.33 50.64h-16a1.33 1.33 0 1 0 0 2.67h16A6.6 6.6 0 0 0 64 46.64v-2.67c0-.73-.6-1.33-1.33-1.33H17.33c-.73 0-1.33.6-1.33 1.33v2.67a6.6 6.6 0 0 0 6.67 6.67h12v6.66a1.33 1.33 0 1 0 2.66 0v-8c0-.73-.6-1.33-1.33-1.33H22.67c-2.25 0-4-1.76-4-4v-1.33h42.66v1.33c0 2.24-1.75 4-4 4ZM70.65 31.4l.02.57a1.33 1.33 0 1 0 2.66 0c0-.25 0-.5-.02-.76a1.33 1.33 0 0 0-2.66.19ZM67.83 24.08c-.49.56-.43 1.4.12 1.89.3.27.6.57.86.88a1.33 1.33 0 0 0 2.05-1.7c-.35-.43-.74-.82-1.15-1.19a1.33 1.33 0 0 0-1.88.12ZM41.33 30.57a1.33 1.33 0 1 0-2.66 0v1.48a1.33 1.33 0 1 0 2.66 0v-1.48ZM40 36.64c-.74 0-1.33.6-1.33 1.33v.67a1.33 1.33 0 1 0 2.66 0v-.67c0-.73-.6-1.33-1.33-1.33ZM45.33 38.64a1.33 1.33 0 1 0 2.67 0v-.67a1.33 1.33 0 1 0-2.67 0v.67ZM41.33 23.97l.01-.62a1.33 1.33 0 0 0-.83-1.27l-.16-.04c-.1-.02-.2-.06-.3-.06h-.1c-.1 0-.2.04-.3.06l-.16.04c-.5.2-.85.7-.83 1.27v1.29a1.33 1.33 0 1 0 2.67 0v-.67ZM32 38.64a1.33 1.33 0 1 0 2.67 0v-.67a1.33 1.33 0 1 0-2.67 0v.67ZM33.33 33.87c.74 0 1.34-.6 1.34-1.34v-1.35a1.33 1.33 0 1 0-2.67 0v1.35c0 .74.6 1.34 1.33 1.34ZM28 38.64v-.67a1.33 1.33 0 1 0-2.67 0v.67a1.33 1.33 0 1 0 2.67 0ZM9.31 27.02a1.33 1.33 0 0 0 1.88-.17c.26-.31.55-.61.86-.88a1.33 1.33 0 0 0-1.76-2c-.41.36-.8.75-1.15 1.17-.47.57-.4 1.41.17 1.88Z"/><path d="M73.33 63.97h-28v-6.66a1.33 1.33 0 1 0-2.66 0v8c0 .73.6 1.33 1.33 1.33h28v6.67a4 4 0 0 1-4 4H12a4 4 0 0 1-4-4v-6.67h30.78a1.33 1.33 0 1 0 0-2.67H6.67c-.74 0-1.34.6-1.34 1.34v8c0 3.67 3 6.66 6.67 6.66h56c3.68 0 6.67-2.99 6.67-6.66v-8c0-.74-.6-1.34-1.34-1.34Z"/><path d="M32 70.64v2.67a1.33 1.33 0 1 0 2.67 0v-2.67a1.33 1.33 0 1 0-2.67 0ZM1.4 25.98h-.05c-.72 0-1.31.56-1.34 1.28l-.01.71a1.33 1.33 0 1 0 2.67 0v-.62a1.33 1.33 0 0 0-1.28-1.37ZM7.15 17.41c.3-.28.61-.56.93-.82a1.33 1.33 0 1 0-1.68-2.07c-.38.31-.75.64-1.1.98a1.33 1.33 0 1 0 1.85 1.91ZM3.63 19.6a1.33 1.33 0 0 0-1.8.6c-.21.43-.41.88-.6 1.33a1.33 1.33 0 0 0 2.48 1c.16-.4.33-.77.51-1.14.33-.66.07-1.46-.6-1.79ZM6.03 5.56c.22 0 .45-.05.66-.17.36-.21.73-.4 1.1-.6a1.34 1.34 0 0 0-1.17-2.38c-.43.2-.85.43-1.26.66a1.33 1.33 0 0 0 .67 2.5ZM18.67 70.64v2.67a1.33 1.33 0 1 0 2.66 0v-2.67a1.33 1.33 0 1 0-2.66 0ZM78.02 23.27a1.33 1.33 0 0 0 .74-1.74c-.18-.45-.38-.9-.6-1.33a1.34 1.34 0 0 0-2.38 1.2c.18.36.35.74.5 1.12a1.33 1.33 0 0 0 1.74.75ZM79.99 27.26a1.33 1.33 0 1 0-2.66.1v.61a1.33 1.33 0 1 0 2.67 0l-.01-.71ZM74.64 3.07c-.41-.23-.83-.45-1.26-.66a1.34 1.34 0 0 0-1.18 2.4c.38.17.75.37 1.1.58a1.34 1.34 0 0 0 1.83-.5c.36-.63.14-1.45-.5-1.82ZM61.33 73.3v-2.66a1.33 1.33 0 1 0-2.66 0v2.67a1.33 1.33 0 1 0 2.66 0ZM48 73.3v-2.66a1.33 1.33 0 1 0-2.67 0v2.67a1.33 1.33 0 1 0 2.67 0ZM73.6 14.52a1.33 1.33 0 1 0-1.68 2.07c.32.26.63.54.93.82a1.32 1.32 0 0 0 1.88-.03c.51-.53.5-1.37-.03-1.88-.35-.34-.72-.67-1.1-.98ZM8.12 29.98c-.76-.05-1.37.5-1.43 1.23l-.02.76a1.33 1.33 0 1 0 2.66 0l.02-.57c.06-.73-.5-1.37-1.23-1.42ZM26.41 29.44c-.72.1-1.24.77-1.14 1.5a8 8 0 0 1 .06 1.03v.23a1.33 1.33 0 1 0 2.67 0v-.23c0-.46-.03-.93-.09-1.38a1.33 1.33 0 0 0-1.5-1.15ZM24.9 4.02c.4.15.79.31 1.17.48a1.33 1.33 0 0 0 1.1-2.43c-.44-.2-.88-.37-1.32-.54a1.33 1.33 0 1 0-.95 2.5ZM24.4 15.11c.35.2.7.42 1.05.65a1.33 1.33 0 1 0 1.48-2.22c-.4-.27-.82-.53-1.25-.76a1.34 1.34 0 0 0-1.29 2.33ZM1.33 9.3c.36 0 .73-.14.99-.43l.42-.44a1.33 1.33 0 0 0-1.9-1.87l-.5.52a1.33 1.33 0 0 0 1 2.23ZM22.3 25.7c.32.25.62.54.9.84a1.33 1.33 0 0 0 1.89.07c.54-.5.57-1.35.07-1.89-.37-.4-.78-.77-1.2-1.11a1.33 1.33 0 1 0-1.67 2.09ZM29.75 20.17a1.33 1.33 0 1 0 2.26-1.42c-.26-.42-.54-.82-.83-1.2a1.34 1.34 0 0 0-2.13 1.6c.25.33.48.67.7 1.02ZM30.37 7.09c.33.25.65.52.97.8a1.32 1.32 0 0 0 1.88-.14c.48-.55.43-1.4-.13-1.88-.36-.31-.72-.61-1.1-.9a1.33 1.33 0 1 0-1.62 2.12ZM12.24 3.19c.1 0 .2-.01.29-.03.4-.1.82-.17 1.23-.24a1.33 1.33 0 1 0-.41-2.63c-.47.07-.94.16-1.4.26a1.33 1.33 0 0 0 .3 2.64ZM18.8 2.69a22.43 22.43 0 0 1 1.41.13 1.33 1.33 0 0 0 .17-2.65c-.47-.06-.94-.11-1.4-.14a1.33 1.33 0 1 0-.18 2.66ZM32.65 23.14c-.72.16-1.17.88-1.01 1.6.1.4.16.8.22 1.21a1.34 1.34 0 0 0 2.64-.36c-.06-.49-.15-.97-.26-1.45a1.34 1.34 0 0 0-1.6-1ZM11.93 14.24c.15 0 .3-.02.45-.08.4-.14.79-.26 1.19-.36a1.33 1.33 0 0 0-.69-2.58c-.47.12-.94.27-1.4.43a1.33 1.33 0 0 0 .45 2.6ZM18.5 13.35a14.54 14.54 0 0 1 1.44.17 1.33 1.33 0 0 0 .21-2.65 16.8 16.8 0 0 0-1.45-.18 1.33 1.33 0 1 0-.2 2.66ZM16.37 24.02h.14c.4-.04.82-.06 1.23-.04.77.04 1.37-.53 1.4-1.26a1.33 1.33 0 0 0-1.26-1.4 10.7 10.7 0 0 0-1.65.04 1.34 1.34 0 0 0 .14 2.66Z"/></g><defs><clipPath id="a"><path fill="#fff" d="M0 0h80v80H0z"/></clipPath></defs></svg>