<svg xmlns="http://www.w3.org/2000/svg" width="23" height="20" fill="none"><g fill="#fff" clip-path="url(#a)"><path d="M15.38 0h-8C3.69 0 .7 2.8.7 6.25v7.5C.7 17.2 3.69 20 7.38 20h8c3.68 0 6.67-2.8 6.67-6.25v-7.5C22.05 2.8 19.06 0 15.38 0Zm4.67 13.75c0 2.41-2.1 4.38-4.67 4.38h-8c-2.58 0-4.67-1.97-4.67-4.38v-7.5c0-2.41 2.1-4.38 4.67-4.38h8c2.57 0 4.67 1.97 4.67 4.38v7.5Z"/><path d="M11.38 5c-2.95 0-5.34 2.24-5.34 5s2.39 5 5.34 5c2.94 0 5.33-2.24 5.33-5s-2.39-5-5.33-5Zm0 8.13c-1.84 0-3.34-1.4-3.34-3.13 0-1.72 1.5-3.13 3.34-3.13 1.83 0 3.33 1.4 3.33 3.13 0 1.72-1.5 3.13-3.33 3.13ZM17.11 5.3c.4 0 .71-.3.71-.68 0-.36-.32-.66-.7-.66-.4 0-.72.3-.72.66 0 .37.32.67.71.67Z"/></g><defs><clipPath id="a"><path fill="#fff" d="M.7 0h21.35v20H.7z"/></clipPath></defs></svg>