<svg xmlns="http://www.w3.org/2000/svg" width="38" height="20" fill="none"><path fill="#fff" d="m37.48 18.06-.12-.23c-.65-1.1-1.9-2.44-3.72-4.03l-.04-.04-.02-.01-.02-.02h-.02a21.8 21.8 0 0 1-1.58-1.5c-.4-.49-.5-.98-.27-1.48.16-.38.74-1.17 1.75-2.39l1.27-1.55c2.24-2.8 3.22-4.59 2.92-5.37l-.12-.18c-.08-.1-.28-.2-.6-.3-.33-.09-.74-.1-1.25-.04l-5.6.03a.77.77 0 0 0-.4.01l-.25.06-.1.04-.07.06a.85.85 0 0 0-.22.19c-.08.09-.14.2-.2.32a29 29 0 0 1-3.4 6.07 6.93 6.93 0 0 1-1.75 1.85c-.22.16-.4.22-.5.2l-.34-.07a1.25 1.25 0 0 1-.44-.45 1.91 1.91 0 0 1-.22-.71 7.4 7.4 0 0 1-.06-1.62l.02-.76a42.46 42.46 0 0 1 .08-2.8l.02-1a2.72 2.72 0 0 0-.27-1.41 1 1 0 0 0-.4-.44c-.18-.1-.4-.19-.66-.25A13.8 13.8 0 0 0 18.27 0c-2.41-.02-3.96.12-4.65.44a2.6 2.6 0 0 0-.74.55c-.23.27-.27.41-.1.44.78.1 1.33.37 1.66.78l.11.22c.1.16.19.44.28.84A13.32 13.32 0 0 1 15 6.88c-.07.64-.13 1.13-.2 1.48a2.82 2.82 0 0 1-.49 1.26.33.33 0 0 1-.1.1c-.17.05-.34.08-.52.08s-.4-.08-.66-.25c-.26-.17-.53-.4-.81-.7-.28-.3-.6-.72-.95-1.26a21.4 21.4 0 0 1-1.09-1.9l-.3-.52a44.49 44.49 0 0 1-1.7-3.38c-.1-.25-.26-.45-.47-.58l-.1-.06a2.17 2.17 0 0 0-.76-.27L1.53.9c-.55 0-.92.12-1.11.35l-.08.11a.56.56 0 0 0-.06.3c0 .13.04.3.12.49a58.66 58.66 0 0 0 4.92 8.81 45.6 45.6 0 0 0 4 4.97l.48.43c.31.3.77.64 1.38 1.05.6.41 1.27.81 2 1.2a11.3 11.3 0 0 0 5.4 1.28h2.24c.46-.04.8-.17 1.04-.4l.07-.1c.06-.07.1-.18.15-.33.05-.16.07-.32.07-.5-.01-.53.03-1 .12-1.42.1-.42.21-.74.34-.95a2.34 2.34 0 0 1 .75-.8l.15-.07c.31-.1.68 0 1.1.29.42.28.82.64 1.19 1.06.37.42.81.89 1.33 1.41.52.52.98.91 1.37 1.17l.39.22c.26.14.6.28 1 .4.42.12.79.15 1.1.09l4.98-.07c.5 0 .88-.08 1.15-.23.28-.15.44-.32.49-.5.05-.19.05-.4.01-.62-.05-.24-.1-.4-.14-.49Z"/></svg>